<svg width="77" height="86" xmlns="http://www.w3.org/2000/svg" viewBox="0 0 77 86"><defs><style>.cls-2{fill:#38d65d}</style></defs><path fill="none" d="M.18.86h76.64v84.27H.18z"/><path class="cls-2" d="M60 56.15a39.47 39.47 0 00-2.75-5.94c-1.06-1.9-1.88-3.28-2.51-4.51a10 10 0 01-1.25 3c-1.22 1.88-3.72 4.48-5.08 7.69-1.3 3.05-.91 4.2-.18 7.9 2 5.88.94 13.24-3.27 17.54 0 .05-.1.08-.15.13 3.33-.65 11.5-3.07 15.06-11.48 1.89-4.44 1.37-9.7.13-14.35M58.21 12.55s18.61 16.13 18.61 33.79a32.16 32.16 0 01-13.45 26.19 81.71 81.71 0 001.49-12c.13-5.3-1.24-9.85-4.24-15.21s-4.11-6.61-4.11-11.91S58.13 23 58.63 19.66a21.25 21.25 0 00-.42-7.11M17 56.15a39.47 39.47 0 012.75-5.94c1.06-1.9 1.89-3.28 2.51-4.51a10 10 0 001.25 3c1.23 1.88 3.72 4.48 5.08 7.69 1.3 3.05.91 4.2.18 7.9-2 5.88-.94 13.24 3.27 17.54l.15.13c-3.33-.65-11.5-3.07-15.06-11.48-1.89-4.44-1.37-9.7-.12-14.35M18.79 12.55S.18 28.68.18 46.34a32.13 32.13 0 0013.45 26.19 81.71 81.71 0 01-1.49-12c-.13-5.3 1.24-9.85 4.24-15.21s4.11-6.61 4.11-11.91S18.87 23 18.37 19.66a21.25 21.25 0 01.42-7.11"/><path class="cls-2" d="M38.49 85.63a2.57 2.57 0 01-1.82-.74 2.63 2.63 0 010-3.7 11.66 11.66 0 002.9-8.19 11.69 11.69 0 00-3-8.2c-5.84-6-5.84-17.69 0-23.66a11.66 11.66 0 003-8.14 11.69 11.69 0 00-3-8.2c-5.84-6-5.84-17.69 0-23.66a2.62 2.62 0 011.91-.77 2.7 2.7 0 011.85.74A2.6 2.6 0 0141.11 3a2.64 2.64 0 01-.74 1.86A11.64 11.64 0 0037.43 13a11.66 11.66 0 003 8.21c5.83 6 5.83 17.68 0 23.66a11.62 11.62 0 00-3 8.13 11.68 11.68 0 003 8.21c5.83 6 5.83 17.68 0 23.65a2.85 2.85 0 01-1.87.79z"/></svg>